<svg xmlns="http://www.w3.org/2000/svg" viewBox="0 0 240 240" role="img" aria-label="El-Masry Electronics mark">
  <defs>
    <linearGradient id="gearNavy" x1="0" y1="0" x2="0" y2="1">
      <stop offset="0%" stop-color="#1E3A5F"></stop>
      <stop offset="100%" stop-color="#0A1628"></stop>
    </linearGradient>
    <linearGradient id="mCyan" x1="0" y1="0" x2="1" y2="1">
      <stop offset="0%" stop-color="#00B4D8"></stop>
      <stop offset="100%" stop-color="#0096BC"></stop>
    </linearGradient>
  </defs>

  <g transform="translate(120 120)">
    <g fill="url(#gearNavy)">
      <path d="M -14 -115 L 14 -115 L 10 -95 L -10 -95 Z"></path>
      <g transform="rotate(30)"><path d="M -14 -115 L 14 -115 L 10 -95 L -10 -95 Z"></path></g>
      <g transform="rotate(60)"><path d="M -14 -115 L 14 -115 L 10 -95 L -10 -95 Z"></path></g>
      <g transform="rotate(90)"><path d="M -14 -115 L 14 -115 L 10 -95 L -10 -95 Z"></path></g>
      <g transform="rotate(120)"><path d="M -14 -115 L 14 -115 L 10 -95 L -10 -95 Z"></path></g>
      <g transform="rotate(150)"><path d="M -14 -115 L 14 -115 L 10 -95 L -10 -95 Z"></path></g>
      <g transform="rotate(180)"><path d="M -14 -115 L 14 -115 L 10 -95 L -10 -95 Z"></path></g>
      <g transform="rotate(210)"><path d="M -14 -115 L 14 -115 L 10 -95 L -10 -95 Z"></path></g>
      <g transform="rotate(240)"><path d="M -14 -115 L 14 -115 L 10 -95 L -10 -95 Z"></path></g>
      <g transform="rotate(270)"><path d="M -14 -115 L 14 -115 L 10 -95 L -10 -95 Z"></path></g>
      <g transform="rotate(300)"><path d="M -14 -115 L 14 -115 L 10 -95 L -10 -95 Z"></path></g>
      <g transform="rotate(330)"><path d="M -14 -115 L 14 -115 L 10 -95 L -10 -95 Z"></path></g>
    </g>

    <circle r="100" fill="url(#gearNavy)"></circle>
    <circle r="82" fill="#FFFFFF"></circle>
    <circle r="82" fill="none" stroke="#00B4D8" stroke-width="2" stroke-opacity="0.6"></circle>

    <g stroke="url(#mCyan)" stroke-width="9" stroke-linecap="round" stroke-linejoin="round" fill="none">
      <path d="M -48 42 L -48 -42 L 0 20 L 48 -42 L 48 42"></path>
    </g>
    <g fill="#00B4D8">
      <circle cx="-48" cy="-42" r="5.5"></circle>
      <circle cx="48" cy="-42" r="5.5"></circle>
      <circle cx="-48" cy="42" r="5.5"></circle>
      <circle cx="48" cy="42" r="5.5"></circle>
      <circle cx="0" cy="20" r="5.5"></circle>
    </g>
    <g stroke="#00B4D8" stroke-width="3.5" stroke-linecap="round" fill="none" opacity="0.85">
      <path d="M 48 -42 L 64 -42 L 64 -58"></path>
      <path d="M 48 42 L 64 42 L 64 58"></path>
    </g>
    <g fill="#00B4D8" opacity="0.85">
      <circle cx="64" cy="-58" r="3.5"></circle>
      <circle cx="64" cy="58" r="3.5"></circle>
    </g>
  </g>
</svg>