<svg xmlns="http://www.w3.org/2000/svg" viewBox="0 0 680 200" role="img" aria-label="El-Masry Electronics">
  <g transform="translate(100 100) scale(0.72)">
    <g fill="#FFFFFF">
      <path d="M -14 -115 L 14 -115 L 10 -95 L -10 -95 Z"></path>
      <g transform="rotate(30)"><path d="M -14 -115 L 14 -115 L 10 -95 L -10 -95 Z"></path></g>
      <g transform="rotate(60)"><path d="M -14 -115 L 14 -115 L 10 -95 L -10 -95 Z"></path></g>
      <g transform="rotate(90)"><path d="M -14 -115 L 14 -115 L 10 -95 L -10 -95 Z"></path></g>
      <g transform="rotate(120)"><path d="M -14 -115 L 14 -115 L 10 -95 L -10 -95 Z"></path></g>
      <g transform="rotate(150)"><path d="M -14 -115 L 14 -115 L 10 -95 L -10 -95 Z"></path></g>
      <g transform="rotate(180)"><path d="M -14 -115 L 14 -115 L 10 -95 L -10 -95 Z"></path></g>
      <g transform="rotate(210)"><path d="M -14 -115 L 14 -115 L 10 -95 L -10 -95 Z"></path></g>
      <g transform="rotate(240)"><path d="M -14 -115 L 14 -115 L 10 -95 L -10 -95 Z"></path></g>
      <g transform="rotate(270)"><path d="M -14 -115 L 14 -115 L 10 -95 L -10 -95 Z"></path></g>
      <g transform="rotate(300)"><path d="M -14 -115 L 14 -115 L 10 -95 L -10 -95 Z"></path></g>
      <g transform="rotate(330)"><path d="M -14 -115 L 14 -115 L 10 -95 L -10 -95 Z"></path></g>
    </g>
    <circle r="100" fill="#FFFFFF"></circle>
    <circle r="82" fill="#0A1628"></circle>
    <path d="M -48 42 L -48 -42 L 0 20 L 48 -42 L 48 42" stroke="#FFFFFF" stroke-width="9" stroke-linecap="round" stroke-linejoin="round" fill="none"></path>
    <g fill="#FFFFFF">
      <circle cx="-48" cy="-42" r="5.5"></circle><circle cx="48" cy="-42" r="5.5"></circle>
      <circle cx="-48" cy="42" r="5.5"></circle><circle cx="48" cy="42" r="5.5"></circle>
      <circle cx="0" cy="20" r="5.5"></circle>
    </g>
  </g>

  <g font-family="Inter, 'Segoe UI', sans-serif">
    <text x="200" y="100" font-size="54" font-weight="800" fill="#FFFFFF" letter-spacing="-1">EL-MASRY</text>
    <text x="200" y="138" font-size="17" font-weight="600" fill="#A8BACE" letter-spacing="4">ELECTRONICS &amp; SCREEN SPARE PARTS</text>
    <rect x="200" y="150" width="60" height="3" fill="#00B4D8"></rect>
  </g>
</svg>
